# xmcd
#
# Track frame offsets:
#	150
#	2601
#	12069
#	20785
#	34884
#	37465
#	55182
#	57705
#	68186
#	78320
#	88801
#	92394
#	105133
#	121489
#	129452
#	142278
#	154785
#	169636
#	179856
#
# Disc length: 2542 seconds
#
# Revision: 0
# Processed by: cddbd v1.5.1PL2 Copyright (c) Steve Scherf et al.
# Submitted via: EasyCDDAExtractor 9.0.2.1
#
DISCID=0709ec13
DTITLE=Various Artist - Live im Beatclub
DYEAR=1972
DGENRE=Country
TTITLE0=Uschi Nerke - Intro
TTITLE1=Carl Perkins - Blue suede Shoes
TTITLE2=Carl Perkins - Me and Jesus
TTITLE3=Johnny Cash - A Boy named Sue
TTITLE4=Johnny Cash - Begrüßung des Publikums
TTITLE5=Johnny Cash - Sunday Morning coming down
TTITLE6=Johnny Cash - Vorstellung der Band
TTITLE7=Johnny Cash - Tennesee Flat Top Box
TTITLE8=Johnny Cash - I still Miss someone
TTITLE9=Johnny Cash - Me and Bobby McGee
TTITLE10=Johnny Cash - Ankündigung Anita Carter
TTITLE11=Anita Carter - Loving him was easier
TTITLE12=Johnny Cash - Rock Island Line
TTITLE13=Johnny Cash - Folsom Prison Blues
TTITLE14=Johnny Cash - I walk the Line
TTITLE15=Johnny Cash and June Carter - Jackson
TTITLE16=Johnny Cash and June Carter - If I were a Carpenter
TTITLE17=Johnny Cash and June Carter - If I had a Hammer
TTITLE18=Johnny Cash and June Carter - A Thing called Love
EXTD=
EXTT0=
EXTT1=
EXTT2=
EXTT3=
EXTT4=
EXTT5=
EXTT6=
EXTT7=
EXTT8=
EXTT9=
EXTT10=
EXTT11=
EXTT12=
EXTT13=
EXTT14=
EXTT15=
EXTT16=
EXTT17=
EXTT18=
PLAYORDER=
